<svg width="436" height="297" viewBox="0 0 436 297" fill="none" xmlns="http://www.w3.org/2000/svg">
<mask id="path-1-outside-1_1_2" maskUnits="userSpaceOnUse" x="-3" y="-2" width="441" height="301" fill="black">
<rect fill="white" x="-3" y="-2" width="441" height="301"/>
<path d="M69.576 13.144V30.68H45.768V103H23.88V30.68H0.072V13.144H69.576ZM124.465 30.808C132.657 30.808 139.228 33.5387 144.177 39C149.126 44.376 151.601 51.8 151.601 61.272V103H129.841V64.216C129.841 59.4373 128.604 55.7253 126.129 53.08C123.654 50.4347 120.326 49.112 116.145 49.112C111.964 49.112 108.636 50.4347 106.161 53.08C103.686 55.7253 102.449 59.4373 102.449 64.216V103H80.561V8.28H102.449V41.176C104.668 38.0187 107.697 35.5013 111.537 33.624C115.377 31.7467 119.686 30.808 124.465 30.808ZM177.819 24.152C173.979 24.152 170.822 23.0427 168.347 20.824C165.958 18.52 164.763 15.704 164.763 12.376C164.763 8.96266 165.958 6.14666 168.347 3.92799C170.822 1.62399 173.979 0.471992 177.819 0.471992C181.574 0.471992 184.646 1.62399 187.035 3.92799C189.51 6.14666 190.747 8.96266 190.747 12.376C190.747 15.704 189.51 18.52 187.035 20.824C184.646 23.0427 181.574 24.152 177.819 24.152ZM188.699 31.576V103H166.811V31.576H188.699ZM248.081 30.808C256.444 30.808 263.1 33.5387 268.049 39C273.084 44.376 275.601 51.8 275.601 61.272V103H253.841V64.216C253.841 59.4373 252.604 55.7253 250.129 53.08C247.654 50.4347 244.326 49.112 240.145 49.112C235.964 49.112 232.636 50.4347 230.161 53.08C227.686 55.7253 226.449 59.4373 226.449 64.216V103H204.561V31.576H226.449V41.048C228.668 37.8907 231.654 35.416 235.409 33.624C239.164 31.7467 243.388 30.808 248.081 30.808ZM317.947 30.552C322.982 30.552 327.376 31.576 331.131 33.624C334.971 35.672 337.915 38.36 339.963 41.688V31.576H361.851V102.872C361.851 109.443 360.528 115.373 357.883 120.664C355.323 126.04 351.355 130.307 345.979 133.464C340.688 136.621 334.075 138.2 326.139 138.2C315.558 138.2 306.982 135.683 300.411 130.648C293.84 125.699 290.086 118.957 289.147 110.424H310.779C311.462 113.155 313.083 115.288 315.643 116.824C318.203 118.445 321.36 119.256 325.115 119.256C329.638 119.256 333.222 117.933 335.867 115.288C338.598 112.728 339.963 108.589 339.963 102.872V92.76C337.83 96.088 334.886 98.8187 331.131 100.952C327.376 103 322.982 104.024 317.947 104.024C312.059 104.024 306.726 102.531 301.947 99.544C297.168 96.472 293.371 92.1627 290.555 86.616C287.824 80.984 286.459 74.4987 286.459 67.16C286.459 59.8213 287.824 53.3787 290.555 47.832C293.371 42.2853 297.168 38.0187 301.947 35.032C306.726 32.0453 312.059 30.552 317.947 30.552ZM339.963 67.288C339.963 61.8267 338.427 57.5173 335.355 54.36C332.368 51.2027 328.699 49.624 324.347 49.624C319.995 49.624 316.283 51.2027 313.211 54.36C310.224 57.432 308.731 61.6987 308.731 67.16C308.731 72.6213 310.224 76.9733 313.211 80.216C316.283 83.3733 319.995 84.952 324.347 84.952C328.699 84.952 332.368 83.3733 335.355 80.216C338.427 77.0587 339.963 72.7493 339.963 67.288ZM406.742 104.024C400.513 104.024 394.966 102.957 390.102 100.824C385.238 98.6907 381.398 95.7893 378.582 92.12C375.766 88.3653 374.187 84.184 373.846 79.576H395.478C395.734 82.0507 396.886 84.056 398.934 85.592C400.982 87.128 403.499 87.896 406.486 87.896C409.217 87.896 411.307 87.384 412.758 86.36C414.294 85.2507 415.062 83.8427 415.062 82.136C415.062 80.088 413.995 78.5947 411.862 77.656C409.729 76.632 406.273 75.5227 401.494 74.328C396.374 73.1333 392.107 71.896 388.694 70.616C385.281 69.2507 382.337 67.16 379.862 64.344C377.387 61.4427 376.15 57.56 376.15 52.696C376.15 48.6 377.259 44.888 379.478 41.56C381.782 38.1467 385.11 35.4587 389.462 33.496C393.899 31.5333 399.147 30.552 405.206 30.552C414.166 30.552 421.206 32.7707 426.326 37.208C431.531 41.6453 434.518 47.5333 435.286 54.872H415.062C414.721 52.3973 413.611 50.4347 411.734 48.984C409.942 47.5333 407.553 46.808 404.566 46.808C402.006 46.808 400.043 47.32 398.678 48.344C397.313 49.2827 396.63 50.6053 396.63 52.312C396.63 54.36 397.697 55.896 399.83 56.92C402.049 57.944 405.462 58.968 410.07 59.992C415.361 61.3573 419.67 62.7227 422.998 64.088C426.326 65.368 429.227 67.5013 431.702 70.488C434.262 73.3893 435.585 77.3147 435.67 82.264C435.67 86.4453 434.475 90.2 432.086 93.528C429.782 96.7707 426.411 99.3307 421.974 101.208C417.622 103.085 412.545 104.024 406.742 104.024ZM128.584 205.144L105.16 295H78.664L64.328 235.864L49.48 295H22.984L0.2 205.144H23.624L36.552 270.552L52.552 205.144H76.616L91.976 270.552L105.032 205.144H128.584ZM206.889 258.136C206.889 260.184 206.761 262.317 206.505 264.536H156.969C157.31 268.973 158.718 272.387 161.193 274.776C163.753 277.08 166.868 278.232 170.537 278.232C175.998 278.232 179.796 275.928 181.929 271.32H205.225C204.03 276.013 201.854 280.237 198.697 283.992C195.625 287.747 191.742 290.691 187.049 292.824C182.356 294.957 177.108 296.024 171.305 296.024C164.308 296.024 158.078 294.531 152.617 291.544C147.156 288.557 142.889 284.291 139.817 278.744C136.745 273.197 135.209 266.712 135.209 259.288C135.209 251.864 136.702 245.379 139.689 239.832C142.761 234.285 147.028 230.019 152.489 227.032C157.95 224.045 164.222 222.552 171.305 222.552C178.217 222.552 184.361 224.003 189.737 226.904C195.113 229.805 199.294 233.944 202.281 239.32C205.353 244.696 206.889 250.968 206.889 258.136ZM184.489 252.376C184.489 248.621 183.209 245.635 180.649 243.416C178.089 241.197 174.889 240.088 171.049 240.088C167.38 240.088 164.265 241.155 161.705 243.288C159.23 245.421 157.694 248.451 157.097 252.376H184.489ZM279.225 205.144C288.697 205.144 296.974 207.021 304.057 210.776C311.14 214.531 316.601 219.821 320.441 226.648C324.366 233.389 326.329 241.197 326.329 250.072C326.329 258.861 324.366 266.669 320.441 273.496C316.601 280.323 311.097 285.613 303.929 289.368C296.846 293.123 288.612 295 279.225 295H245.561V205.144H279.225ZM277.817 276.056C286.094 276.056 292.537 273.795 297.145 269.272C301.753 264.749 304.057 258.349 304.057 250.072C304.057 241.795 301.753 235.352 297.145 230.744C292.537 226.136 286.094 223.832 277.817 223.832H267.449V276.056H277.817ZM371.073 296.024C364.076 296.024 357.761 294.531 352.129 291.544C346.582 288.557 342.188 284.291 338.945 278.744C335.788 273.197 334.209 266.712 334.209 259.288C334.209 251.949 335.83 245.507 339.073 239.96C342.316 234.328 346.753 230.019 352.385 227.032C358.017 224.045 364.332 222.552 371.329 222.552C378.326 222.552 384.641 224.045 390.273 227.032C395.905 230.019 400.342 234.328 403.585 239.96C406.828 245.507 408.449 251.949 408.449 259.288C408.449 266.627 406.785 273.112 403.457 278.744C400.214 284.291 395.734 288.557 390.017 291.544C384.385 294.531 378.07 296.024 371.073 296.024ZM371.073 277.08C375.254 277.08 378.796 275.544 381.697 272.472C384.684 269.4 386.177 265.005 386.177 259.288C386.177 253.571 384.726 249.176 381.825 246.104C379.009 243.032 375.51 241.496 371.329 241.496C367.062 241.496 363.521 243.032 360.705 246.104C357.889 249.091 356.481 253.485 356.481 259.288C356.481 265.005 357.846 269.4 360.577 272.472C363.393 275.544 366.892 277.08 371.073 277.08Z"/>
</mask>
<path d="M69.576 13.144H71.576V11.144H69.576V13.144ZM69.576 30.68V32.68H71.576V30.68H69.576ZM45.768 30.68V28.68H43.768V30.68H45.768ZM45.768 103V105H47.768V103H45.768ZM23.88 103H21.88V105H23.88V103ZM23.88 30.68H25.88V28.68H23.88V30.68ZM0.072 30.68H-1.928V32.68H0.072V30.68ZM0.072 13.144V11.144H-1.928V13.144H0.072ZM67.576 13.144V30.68H71.576V13.144H67.576ZM69.576 28.68H45.768V32.68H69.576V28.68ZM43.768 30.68V103H47.768V30.68H43.768ZM45.768 101H23.88V105H45.768V101ZM25.88 103V30.68H21.88V103H25.88ZM23.88 28.68H0.072V32.68H23.88V28.68ZM2.072 30.68V13.144H-1.928V30.68H2.072ZM0.072 15.144H69.576V11.144H0.072V15.144ZM144.177 39L142.695 40.343L142.7 40.3488L142.706 40.3546L144.177 39ZM151.601 103V105H153.601V103H151.601ZM129.841 103H127.841V105H129.841V103ZM126.129 53.08L124.668 54.4463L124.668 54.4463L126.129 53.08ZM106.161 53.08L107.622 54.4463L107.622 54.4463L106.161 53.08ZM102.449 103V105H104.449V103H102.449ZM80.561 103H78.561V105H80.561V103ZM80.561 8.28V6.28H78.561V8.28H80.561ZM102.449 8.28H104.449V6.28H102.449V8.28ZM102.449 41.176H100.449V47.5007L104.085 42.3259L102.449 41.176ZM111.537 33.624L110.659 31.8272L110.659 31.8272L111.537 33.624ZM124.465 32.808C132.162 32.808 138.169 35.3493 142.695 40.343L145.659 37.657C140.286 31.728 133.152 28.808 124.465 28.808V32.808ZM142.706 40.3546C147.224 45.2623 149.601 52.1487 149.601 61.272H153.601C153.601 51.4513 151.029 43.4897 145.648 37.6454L142.706 40.3546ZM149.601 61.272V103H153.601V61.272H149.601ZM151.601 101H129.841V105H151.601V101ZM131.841 103V64.216H127.841V103H131.841ZM131.841 64.216C131.841 59.0962 130.51 54.8353 127.59 51.7137L124.668 54.4463C126.698 56.6153 127.841 59.7784 127.841 64.216H131.841ZM127.59 51.7137C124.677 48.6005 120.786 47.112 116.145 47.112V51.112C119.866 51.112 122.631 52.2688 124.668 54.4463L127.59 51.7137ZM116.145 47.112C111.504 47.112 107.613 48.6005 104.7 51.7137L107.622 54.4463C109.659 52.2688 112.424 51.112 116.145 51.112V47.112ZM104.7 51.7137C101.78 54.8353 100.449 59.0962 100.449 64.216H104.449C104.449 59.7784 105.592 56.6153 107.622 54.4463L104.7 51.7137ZM100.449 64.216V103H104.449V64.216H100.449ZM102.449 101H80.561V105H102.449V101ZM82.561 103V8.28H78.561V103H82.561ZM80.561 10.28H102.449V6.28H80.561V10.28ZM100.449 8.28V41.176H104.449V8.28H100.449ZM104.085 42.3259C106.09 39.4735 108.845 37.1662 112.415 35.4208L110.659 31.8272C106.549 33.8365 103.246 36.5638 100.813 40.0261L104.085 42.3259ZM112.415 35.4208C115.951 33.6922 119.955 32.808 124.465 32.808V28.808C119.418 28.808 114.803 29.8011 110.659 31.8272L112.415 35.4208ZM168.347 20.824L166.959 22.2637L166.985 22.2889L167.012 22.3131L168.347 20.824ZM168.347 3.92799L169.708 5.39358L169.71 5.39178L168.347 3.92799ZM187.035 3.92799L185.647 5.36768L185.673 5.39289L185.7 5.41713L187.035 3.92799ZM187.035 20.824L188.396 22.2896L188.398 22.2878L187.035 20.824ZM188.699 31.576H190.699V29.576H188.699V31.576ZM188.699 103V105H190.699V103H188.699ZM166.811 103H164.811V105H166.811V103ZM166.811 31.576V29.576H164.811V31.576H166.811ZM177.819 22.152C174.39 22.152 171.733 21.1739 169.682 19.3349L167.012 22.3131C169.91 24.9114 173.568 26.152 177.819 26.152V22.152ZM169.735 19.3843C167.738 17.4584 166.763 15.1626 166.763 12.376H162.763C162.763 16.2454 164.177 19.5816 166.959 22.2637L169.735 19.3843ZM166.763 12.376C166.763 9.48944 167.747 7.21429 169.708 5.39358L166.986 2.46241C164.168 5.07903 162.763 8.43589 162.763 12.376H166.763ZM169.71 5.39178C171.764 3.47965 174.411 2.47199 177.819 2.47199V-1.52801C173.547 -1.52801 169.88 -0.231663 166.984 2.46421L169.71 5.39178ZM177.819 2.47199C181.129 2.47199 183.68 3.47119 185.647 5.36768L188.423 2.48831C185.611 -0.2232 182.018 -1.52801 177.819 -1.52801V2.47199ZM185.7 5.41713C187.739 7.24492 188.747 9.51349 188.747 12.376H192.747C192.747 8.41184 191.281 5.04841 188.37 2.43886L185.7 5.41713ZM188.747 12.376C188.747 15.1388 187.748 17.4277 185.672 19.3602L188.398 22.2878C191.271 19.6123 192.747 16.2692 192.747 12.376H188.747ZM185.674 19.3584C183.711 21.1816 181.151 22.152 177.819 22.152V26.152C181.996 26.152 185.581 24.9038 188.396 22.2896L185.674 19.3584ZM186.699 31.576V103H190.699V31.576H186.699ZM188.699 101H166.811V105H188.699V101ZM168.811 103V31.576H164.811V103H168.811ZM166.811 33.576H188.699V29.576H166.811V33.576ZM268.049 39L266.567 40.343L266.578 40.3552L266.589 40.3671L268.049 39ZM275.601 103V105H277.601V103H275.601ZM253.841 103H251.841V105H253.841V103ZM250.129 53.08L248.668 54.4463L248.668 54.4463L250.129 53.08ZM230.161 53.08L231.622 54.4463L231.622 54.4463L230.161 53.08ZM226.449 103V105H228.449V103H226.449ZM204.561 103H202.561V105H204.561V103ZM204.561 31.576V29.576H202.561V31.576H204.561ZM226.449 31.576H228.449V29.576H226.449V31.576ZM226.449 41.048H224.449V47.3727L228.085 42.1979L226.449 41.048ZM235.409 33.624L236.27 35.429L236.287 35.4211L236.303 35.4128L235.409 33.624ZM248.081 32.808C255.963 32.808 262.05 35.3586 266.567 40.343L269.531 37.657C264.149 31.7188 256.924 28.808 248.081 28.808V32.808ZM266.589 40.3671C271.186 45.2756 273.601 52.1573 273.601 61.272H277.601C277.601 51.4427 274.981 43.4764 269.509 37.6329L266.589 40.3671ZM273.601 61.272V103H277.601V61.272H273.601ZM275.601 101H253.841V105H275.601V101ZM255.841 103V64.216H251.841V103H255.841ZM255.841 64.216C255.841 59.0962 254.51 54.8353 251.59 51.7137L248.668 54.4463C250.698 56.6153 251.841 59.7784 251.841 64.216H255.841ZM251.59 51.7137C248.677 48.6005 244.786 47.112 240.145 47.112V51.112C243.866 51.112 246.631 52.2688 248.668 54.4463L251.59 51.7137ZM240.145 47.112C235.504 47.112 231.613 48.6005 228.7 51.7137L231.622 54.4463C233.659 52.2688 236.424 51.112 240.145 51.112V47.112ZM228.7 51.7137C225.78 54.8353 224.449 59.0962 224.449 64.216H228.449C228.449 59.7784 229.592 56.6153 231.622 54.4463L228.7 51.7137ZM224.449 64.216V103H228.449V64.216H224.449ZM226.449 101H204.561V105H226.449V101ZM206.561 103V31.576H202.561V103H206.561ZM204.561 33.576H226.449V29.576H204.561V33.576ZM224.449 31.576V41.048H228.449V31.576H224.449ZM228.085 42.1979C230.091 39.3437 232.801 37.0848 236.27 35.429L234.548 31.819C230.508 33.7472 227.244 36.4376 224.813 39.8981L228.085 42.1979ZM236.303 35.4128C239.749 33.69 243.661 32.808 248.081 32.808V28.808C243.114 28.808 238.578 29.8033 234.515 31.8351L236.303 35.4128ZM331.131 33.624L330.173 35.3798L330.182 35.3843L330.19 35.3887L331.131 33.624ZM339.963 41.688L338.26 42.7362L341.963 48.7541V41.688H339.963ZM339.963 31.576V29.576H337.963V31.576H339.963ZM361.851 31.576H363.851V29.576H361.851V31.576ZM357.883 120.664L356.094 119.77L356.086 119.787L356.077 119.804L357.883 120.664ZM345.979 133.464L344.966 131.739L344.954 131.747L345.979 133.464ZM300.411 130.648L301.627 129.06L301.621 129.055L301.614 129.05L300.411 130.648ZM289.147 110.424V108.424H286.915L287.159 110.643L289.147 110.424ZM310.779 110.424L312.719 109.939L312.341 108.424H310.779V110.424ZM315.643 116.824L316.713 115.134L316.693 115.121L316.672 115.109L315.643 116.824ZM335.867 115.288L334.499 113.829L334.476 113.851L334.453 113.874L335.867 115.288ZM339.963 92.76H341.963V85.934L338.279 91.6807L339.963 92.76ZM331.131 100.952L332.089 102.708L332.104 102.699L332.119 102.691L331.131 100.952ZM301.947 99.544L300.865 101.226L300.876 101.233L300.887 101.24L301.947 99.544ZM290.555 86.616L288.755 87.4885L288.763 87.505L288.772 87.5214L290.555 86.616ZM290.555 47.832L288.772 46.9266L288.766 46.9376L288.761 46.9486L290.555 47.832ZM301.947 35.032L303.007 36.728L303.007 36.728L301.947 35.032ZM335.355 54.36L333.902 55.7344L333.912 55.7446L333.922 55.7547L335.355 54.36ZM313.211 54.36L311.778 52.9653L311.777 52.9658L313.211 54.36ZM313.211 80.216L311.74 81.571L311.758 81.5911L311.778 81.6107L313.211 80.216ZM335.355 80.216L333.922 78.8213L333.912 78.8314L333.902 78.8416L335.355 80.216ZM317.947 32.552C322.706 32.552 326.76 33.5183 330.173 35.3798L332.089 31.8682C327.992 29.6337 323.257 28.552 317.947 28.552V32.552ZM330.19 35.3887C333.753 37.2892 336.418 39.7438 338.26 42.7362L341.666 40.6398C339.412 36.9762 336.189 34.0548 332.072 31.8593L330.19 35.3887ZM341.963 41.688V31.576H337.963V41.688H341.963ZM339.963 33.576H361.851V29.576H339.963V33.576ZM359.851 31.576V102.872H363.851V31.576H359.851ZM359.851 102.872C359.851 109.167 358.586 114.786 356.094 119.77L359.672 121.558C362.471 115.96 363.851 109.718 363.851 102.872H359.851ZM356.077 119.804C353.698 124.802 350.015 128.775 344.966 131.739L346.992 135.189C352.695 131.839 356.948 127.278 359.689 121.524L356.077 119.804ZM344.954 131.747C340.051 134.673 333.816 136.2 326.139 136.2V140.2C334.334 140.2 341.326 138.57 347.004 135.181L344.954 131.747ZM326.139 136.2C315.874 136.2 307.762 133.761 301.627 129.06L299.195 132.236C306.201 137.604 315.242 140.2 326.139 140.2V136.2ZM301.614 129.05C295.505 124.449 292.016 118.217 291.135 110.205L287.159 110.643C288.155 119.697 292.175 126.948 299.208 132.246L301.614 129.05ZM289.147 112.424H310.779V108.424H289.147V112.424ZM308.839 110.909C309.658 114.188 311.63 116.748 314.614 118.539L316.672 115.109C314.536 113.828 313.265 112.121 312.719 109.939L308.839 110.909ZM314.573 118.514C317.522 120.381 321.072 121.256 325.115 121.256V117.256C321.649 117.256 318.884 116.509 316.713 115.134L314.573 118.514ZM325.115 121.256C330.05 121.256 334.185 119.799 337.281 116.702L334.453 113.874C332.259 116.068 329.226 117.256 325.115 117.256V121.256ZM337.235 116.747C340.54 113.649 341.963 108.853 341.963 102.872H337.963C337.963 108.325 336.655 111.807 334.499 113.829L337.235 116.747ZM341.963 102.872V92.76H337.963V102.872H341.963ZM338.279 91.6807C336.337 94.711 333.642 97.2248 330.143 99.2131L332.119 102.691C336.129 100.412 339.323 97.465 341.647 93.8393L338.279 91.6807ZM330.173 99.1962C326.76 101.058 322.706 102.024 317.947 102.024V106.024C323.257 106.024 327.992 104.942 332.089 102.708L330.173 99.1962ZM317.947 102.024C312.416 102.024 307.453 100.627 303.007 97.848L300.887 101.24C305.998 104.434 311.702 106.024 317.947 106.024V102.024ZM303.029 97.8616C298.577 94.9997 295.009 90.9715 292.338 85.7106L288.772 87.5214C291.733 93.3538 295.76 97.9443 300.865 101.226L303.029 97.8616ZM292.355 85.7435C289.777 80.4265 288.459 74.2483 288.459 67.16H284.459C284.459 74.7491 285.872 81.5415 288.755 87.4885L292.355 85.7435ZM288.459 67.16C288.459 60.0708 289.777 53.9404 292.349 48.7154L288.761 46.9486C285.872 52.8169 284.459 59.5718 284.459 67.16H288.459ZM292.338 48.7374C295.007 43.4804 298.568 39.5022 303.007 36.728L300.887 33.336C295.768 36.5351 291.735 41.0902 288.772 46.9266L292.338 48.7374ZM303.007 36.728C307.453 33.9491 312.416 32.552 317.947 32.552V28.552C311.702 28.552 305.998 30.1415 300.887 33.336L303.007 36.728ZM341.963 67.288C341.963 61.4374 340.306 56.5808 336.788 52.9653L333.922 55.7547C336.548 58.4538 337.963 62.2159 337.963 67.288H341.963ZM336.808 52.9856C333.443 49.4283 329.248 47.624 324.347 47.624V51.624C328.15 51.624 331.294 52.977 333.902 55.7344L336.808 52.9856ZM324.347 47.624C319.448 47.624 315.221 49.4263 311.778 52.9653L314.644 55.7547C317.345 52.979 320.542 51.624 324.347 51.624V47.624ZM311.777 52.9658C308.335 56.5061 306.731 61.3274 306.731 67.16H310.731C310.731 62.0699 312.114 58.3579 314.645 55.7542L311.777 52.9658ZM306.731 67.16C306.731 72.9979 308.337 77.8761 311.74 81.571L314.682 78.861C312.112 76.0706 310.731 72.2448 310.731 67.16H306.731ZM311.778 81.6107C315.221 85.1497 319.448 86.952 324.347 86.952V82.952C320.542 82.952 317.345 81.597 314.644 78.8213L311.778 81.6107ZM324.347 86.952C329.248 86.952 333.443 85.1477 336.808 81.5904L333.902 78.8416C331.294 81.599 328.15 82.952 324.347 82.952V86.952ZM336.788 81.6107C340.306 77.9952 341.963 73.1386 341.963 67.288H337.963C337.963 72.3601 336.548 76.1222 333.922 78.8213L336.788 81.6107ZM390.102 100.824L390.905 98.9924L390.905 98.9924L390.102 100.824ZM378.582 92.12L376.982 93.32L376.989 93.3289L376.995 93.3376L378.582 92.12ZM373.846 79.576V77.576H371.692L371.851 79.7237L373.846 79.576ZM395.478 79.576L397.467 79.3702L397.282 77.576H395.478V79.576ZM398.934 85.592L400.134 83.992L400.134 83.992L398.934 85.592ZM412.758 86.36L413.911 87.9939L413.92 87.9877L413.929 87.9814L412.758 86.36ZM411.862 77.656L410.997 79.459L411.026 79.4733L411.057 79.4866L411.862 77.656ZM401.494 74.328L401.979 72.3877L401.964 72.3839L401.948 72.3803L401.494 74.328ZM388.694 70.616L387.951 72.473L387.971 72.481L387.992 72.4887L388.694 70.616ZM379.862 64.344L378.34 65.6419L378.35 65.6531L378.36 65.6642L379.862 64.344ZM379.478 41.56L377.82 40.441L377.814 40.4506L379.478 41.56ZM389.462 33.496L388.653 31.6669L388.646 31.6698L388.64 31.6728L389.462 33.496ZM426.326 37.208L425.016 38.7194L425.022 38.7247L425.029 38.73L426.326 37.208ZM435.286 54.872V56.872H437.506L437.275 54.6638L435.286 54.872ZM415.062 54.872L413.081 55.1453L413.319 56.872H415.062V54.872ZM411.734 48.984L410.476 50.5385L410.493 50.5527L410.511 50.5666L411.734 48.984ZM398.678 48.344L399.811 49.9921L399.845 49.9687L399.878 49.944L398.678 48.344ZM399.83 56.92L398.965 58.723L398.978 58.7296L398.992 58.7359L399.83 56.92ZM410.07 59.992L410.57 58.0554L410.537 58.047L410.504 58.0396L410.07 59.992ZM422.998 64.088L422.239 65.9383L422.259 65.9467L422.28 65.9547L422.998 64.088ZM431.702 70.488L430.162 71.764L430.182 71.788L430.202 71.8112L431.702 70.488ZM435.67 82.264H437.67V82.2468L437.67 82.2295L435.67 82.264ZM432.086 93.528L430.461 92.3616L430.456 92.3696L432.086 93.528ZM421.974 101.208L421.195 99.366L421.182 99.3716L421.974 101.208ZM406.742 102.024C400.742 102.024 395.476 100.997 390.905 98.9924L389.299 102.656C394.456 104.918 400.283 106.024 406.742 106.024V102.024ZM390.905 98.9924C386.304 96.9742 382.751 94.2669 380.169 90.9024L376.995 93.3376C380.045 97.3117 384.172 100.407 389.299 102.656L390.905 98.9924ZM380.182 90.92C377.592 87.4661 376.153 83.6487 375.841 79.4283L371.851 79.7237C372.222 84.7193 373.94 89.2646 376.982 93.32L380.182 90.92ZM373.846 81.576H395.478V77.576H373.846V81.576ZM393.489 79.7818C393.804 82.8288 395.255 85.3326 397.734 87.192L400.134 83.992C398.517 82.7794 397.664 81.2725 397.467 79.3702L393.489 79.7818ZM397.734 87.192C400.184 89.0292 403.141 89.896 406.486 89.896V85.896C403.857 85.896 401.78 85.2268 400.134 83.992L397.734 87.192ZM406.486 89.896C409.422 89.896 411.986 89.3529 413.911 87.9939L411.605 84.7261C410.629 85.4151 409.011 85.896 406.486 85.896V89.896ZM413.929 87.9814C415.919 86.544 417.062 84.5627 417.062 82.136H413.062C413.062 83.1226 412.669 83.9573 411.587 84.7386L413.929 87.9814ZM417.062 82.136C417.062 80.7457 416.693 79.4423 415.889 78.3175C415.098 77.2092 413.976 76.401 412.667 75.8254L411.057 79.4866C411.882 79.8497 412.36 80.2575 412.635 80.6425C412.898 81.011 413.062 81.4783 413.062 82.136H417.062ZM412.727 75.853C410.401 74.7364 406.78 73.5879 401.979 72.3877L401.009 76.2683C405.765 77.4574 409.056 78.5276 410.997 79.459L412.727 75.853ZM401.948 72.3803C396.879 71.1975 392.702 69.983 389.396 68.7433L387.992 72.4887C391.513 73.809 395.869 75.0692 401.04 76.2757L401.948 72.3803ZM389.437 68.759C386.321 67.5128 383.636 65.6085 381.364 63.0238L378.36 65.6642C381.038 68.7115 384.24 70.9885 387.951 72.473L389.437 68.759ZM381.384 63.0461C379.295 60.5973 378.15 57.2186 378.15 52.696H374.15C374.15 57.9014 375.48 62.288 378.34 65.6419L381.384 63.0461ZM378.15 52.696C378.15 48.9848 379.148 45.6606 381.142 42.6694L377.814 40.4506C375.371 44.1154 374.15 48.2152 374.15 52.696H378.15ZM381.136 42.6789C383.201 39.6197 386.216 37.1539 390.284 35.3192L388.64 31.6728C384.004 33.7634 380.363 36.6736 377.82 40.4411L381.136 42.6789ZM390.271 35.3251C394.399 33.4994 399.359 32.552 405.206 32.552V28.552C398.936 28.552 393.4 29.5672 388.653 31.6669L390.271 35.3251ZM405.206 32.552C413.842 32.552 420.363 34.6869 425.016 38.7194L427.636 35.6966C422.049 30.8544 414.49 28.552 405.206 28.552V32.552ZM425.029 38.73C429.811 42.8067 432.578 48.2079 433.297 55.0802L437.275 54.6638C436.458 46.8588 433.252 40.484 427.623 35.686L425.029 38.73ZM435.286 52.872H415.062V56.872H435.286V52.872ZM417.043 54.5987C416.635 51.6356 415.272 49.1907 412.957 47.4014L410.511 50.5666C411.95 51.6786 412.807 53.1591 413.081 55.1453L417.043 54.5987ZM412.992 47.4295C410.751 45.6148 407.874 44.808 404.566 44.808V48.808C407.232 48.808 409.133 49.4519 410.476 50.5385L412.992 47.4295ZM404.566 44.808C401.779 44.808 399.324 45.3594 397.478 46.744L399.878 49.944C400.763 49.2806 402.233 48.808 404.566 48.808V44.808ZM397.545 46.6959C395.618 48.0209 394.63 49.9704 394.63 52.312H398.63C398.63 51.2403 399.008 50.5444 399.811 49.9921L397.545 46.6959ZM394.63 52.312C394.63 53.7031 394.999 55.0059 395.787 56.1408C396.564 57.259 397.667 58.1003 398.965 58.723L400.695 55.117C399.859 54.7157 399.363 54.277 399.073 53.8592C398.794 53.4581 398.63 52.9688 398.63 52.312H394.63ZM398.992 58.7359C401.41 59.8519 404.992 60.9124 409.636 61.9444L410.504 58.0396C405.932 57.0236 402.687 56.0361 400.668 55.1041L398.992 58.7359ZM409.57 61.9286C414.813 63.2815 419.027 64.6205 422.239 65.9383L423.757 62.2377C420.313 60.8249 415.908 59.4332 410.57 58.0554L409.57 61.9286ZM422.28 65.9547C425.26 67.1009 427.886 69.0177 430.162 71.764L433.242 69.212C430.568 65.985 427.392 63.6351 423.716 62.2213L422.28 65.9547ZM430.202 71.8112C432.368 74.2659 433.591 77.6886 433.67 82.2985L437.67 82.2295C437.579 76.9408 436.156 72.5128 433.202 69.1648L430.202 71.8112ZM433.67 82.264C433.67 86.0361 432.601 89.381 430.461 92.3616L433.711 94.6944C436.349 91.019 437.67 86.8546 437.67 82.264H433.67ZM430.456 92.3696C428.408 95.2516 425.363 97.6026 421.195 99.3661L422.753 103.05C427.46 101.059 431.156 98.2897 433.716 94.6864L430.456 92.3696ZM421.182 99.3716C417.129 101.12 412.332 102.024 406.742 102.024V106.024C412.758 106.024 418.115 105.051 422.766 103.044L421.182 99.3716ZM128.584 205.144L130.519 205.649L131.172 203.144H128.584V205.144ZM105.16 295V297H106.705L107.095 295.505L105.16 295ZM78.664 295L76.7203 295.471L77.0909 297H78.664V295ZM64.328 235.864L66.2717 235.393L62.3882 235.377L64.328 235.864ZM49.48 295V297H51.0399L51.4198 295.487L49.48 295ZM22.984 295L21.0454 295.492L21.4278 297H22.984V295ZM0.2 205.144V203.144H-2.37041L-1.73865 205.636L0.2 205.144ZM23.624 205.144L25.586 204.756L25.2674 203.144H23.624V205.144ZM36.552 270.552L34.59 270.94L38.4947 271.027L36.552 270.552ZM52.552 205.144V203.144H50.9823L50.6093 204.669L52.552 205.144ZM76.616 205.144L78.563 204.687L78.2007 203.144H76.616V205.144ZM91.976 270.552L90.029 271.009L93.9373 270.943L91.976 270.552ZM105.032 205.144V203.144H103.392L103.071 204.753L105.032 205.144ZM126.649 204.639L103.225 294.495L107.095 295.505L130.519 205.649L126.649 204.639ZM105.16 293H78.664V297H105.16V293ZM80.6077 294.529L66.2717 235.393L62.3843 236.335L76.7203 295.471L80.6077 294.529ZM62.3882 235.377L47.5402 294.513L51.4198 295.487L66.2678 236.351L62.3882 235.377ZM49.48 293H22.984V297H49.48V293ZM24.9227 294.508L2.13865 204.652L-1.73865 205.636L21.0454 295.492L24.9227 294.508ZM0.2 207.144H23.624V203.144H0.2V207.144ZM21.662 205.532L34.59 270.94L38.514 270.164L25.586 204.756L21.662 205.532ZM38.4947 271.027L54.4947 205.619L50.6093 204.669L34.6093 270.077L38.4947 271.027ZM52.552 207.144H76.616V203.144H52.552V207.144ZM74.669 205.601L90.029 271.009L93.923 270.095L78.563 204.687L74.669 205.601ZM93.9373 270.943L106.993 205.535L103.071 204.753L90.0147 270.161L93.9373 270.943ZM105.032 207.144H128.584V203.144H105.032V207.144ZM206.505 264.536V266.536H208.288L208.492 264.765L206.505 264.536ZM156.969 264.536V262.536H154.809L154.975 264.689L156.969 264.536ZM161.193 274.776L159.804 276.215L159.829 276.239L159.855 276.263L161.193 274.776ZM181.929 271.32V269.32H180.651L180.114 270.48L181.929 271.32ZM205.225 271.32L207.163 271.813L207.798 269.32H205.225V271.32ZM198.697 283.992L197.166 282.705L197.158 282.715L197.149 282.726L198.697 283.992ZM187.049 292.824L187.877 294.645L187.049 292.824ZM152.617 291.544L151.657 293.299L151.657 293.299L152.617 291.544ZM139.817 278.744L141.567 277.775L141.567 277.775L139.817 278.744ZM139.689 239.832L137.939 238.863L137.934 238.873L137.928 238.884L139.689 239.832ZM152.489 227.032L153.449 228.787L153.449 228.787L152.489 227.032ZM189.737 226.904L188.787 228.664L188.787 228.664L189.737 226.904ZM202.281 239.32L200.533 240.291L200.539 240.302L200.545 240.312L202.281 239.32ZM184.489 252.376V254.376H186.489V252.376H184.489ZM180.649 243.416L181.959 241.905L181.959 241.905L180.649 243.416ZM161.705 243.288L160.425 241.752L160.412 241.762L160.399 241.773L161.705 243.288ZM157.097 252.376L155.12 252.075L154.77 254.376H157.097V252.376ZM204.889 258.136C204.889 260.101 204.766 262.157 204.518 264.307L208.492 264.765C208.756 262.477 208.889 260.267 208.889 258.136H204.889ZM206.505 262.536H156.969V266.536H206.505V262.536ZM154.975 264.689C155.342 269.468 156.884 273.395 159.804 276.215L162.582 273.337C160.553 271.378 159.278 268.479 158.963 264.383L154.975 264.689ZM159.855 276.263C162.808 278.92 166.409 280.232 170.537 280.232V276.232C167.327 276.232 164.698 275.24 162.531 273.289L159.855 276.263ZM170.537 280.232C173.55 280.232 176.242 279.595 178.518 278.214C180.804 276.827 182.535 274.772 183.744 272.16L180.114 270.48C179.19 272.476 177.955 273.877 176.444 274.794C174.922 275.717 172.986 276.232 170.537 276.232V280.232ZM181.929 273.32H205.225V269.32H181.929V273.32ZM203.287 270.827C202.167 275.224 200.132 279.178 197.166 282.705L200.228 285.279C203.576 281.297 205.893 276.803 207.163 271.813L203.287 270.827ZM197.149 282.726C194.284 286.228 190.653 288.989 186.221 291.003L187.877 294.645C192.831 292.393 196.966 289.266 200.245 285.258L197.149 282.726ZM186.221 291.003C181.819 293.004 176.858 294.024 171.305 294.024V298.024C177.357 298.024 182.893 296.91 187.877 294.645L186.221 291.003ZM171.305 294.024C164.601 294.024 158.709 292.596 153.577 289.789L151.657 293.299C157.448 296.465 164.015 298.024 171.305 298.024V294.024ZM153.577 289.789C148.454 286.988 144.459 282.997 141.567 277.775L138.067 279.713C141.319 285.585 145.857 290.127 151.657 293.299L153.577 289.789ZM141.567 277.775C138.685 272.572 137.209 266.431 137.209 259.288H133.209C133.209 266.993 134.805 273.823 138.067 279.713L141.567 277.775ZM137.209 259.288C137.209 252.136 138.646 245.987 141.45 240.78L137.928 238.884C134.759 244.77 133.209 251.592 133.209 259.288H137.209ZM141.439 240.801C144.331 235.579 148.326 231.588 153.449 228.787L151.529 225.277C145.729 228.449 141.191 232.991 137.939 238.863L141.439 240.801ZM153.449 228.787C158.577 225.982 164.511 224.552 171.305 224.552V220.552C163.934 220.552 157.323 222.109 151.529 225.277L153.449 228.787ZM171.305 224.552C177.93 224.552 183.74 225.94 188.787 228.664L190.687 225.144C184.982 222.065 178.504 220.552 171.305 220.552V224.552ZM188.787 228.664C193.825 231.383 197.73 235.247 200.533 240.291L204.029 238.349C200.859 232.641 196.401 228.228 190.687 225.144L188.787 228.664ZM200.545 240.312C203.418 245.341 204.889 251.261 204.889 258.136H208.889C208.889 250.675 207.288 244.051 204.017 238.328L200.545 240.312ZM186.489 252.376C186.489 248.112 185.008 244.547 181.959 241.905L179.339 244.927C181.41 246.722 182.489 249.131 182.489 252.376H186.489ZM181.959 241.905C178.987 239.329 175.302 238.088 171.049 238.088V242.088C174.476 242.088 177.191 243.066 179.339 244.927L181.959 241.905ZM171.049 238.088C166.962 238.088 163.381 239.288 160.425 241.752L162.985 244.824C165.149 243.022 167.797 242.088 171.049 242.088V238.088ZM160.399 241.773C157.489 244.282 155.773 247.784 155.12 252.075L159.074 252.677C159.616 249.118 160.971 246.561 163.011 244.803L160.399 241.773ZM157.097 254.376H184.489V250.376H157.097V254.376ZM304.057 210.776L304.994 209.009L304.994 209.009L304.057 210.776ZM320.441 226.648L318.698 227.629L318.705 227.642L318.713 227.654L320.441 226.648ZM320.441 273.496L318.707 272.499L318.702 272.507L318.698 272.515L320.441 273.496ZM303.929 289.368L303.001 287.596L302.992 287.601L303.929 289.368ZM245.561 295H243.561V297H245.561V295ZM245.561 205.144V203.144H243.561V205.144H245.561ZM267.449 223.832V221.832H265.449V223.832H267.449ZM267.449 276.056H265.449V278.056H267.449V276.056ZM279.225 207.144C288.43 207.144 296.374 208.967 303.12 212.543L304.994 209.009C297.574 205.076 288.964 203.144 279.225 203.144V207.144ZM303.12 212.543C309.873 216.123 315.05 221.144 318.698 227.629L322.184 225.667C318.152 218.499 312.407 212.939 304.994 209.009L303.12 212.543ZM318.713 227.654C322.437 234.05 324.329 241.501 324.329 250.072H328.329C328.329 240.893 326.296 232.729 322.169 225.642L318.713 227.654ZM324.329 250.072C324.329 258.553 322.439 266.01 318.707 272.499L322.175 274.493C326.294 267.329 328.329 259.17 328.329 250.072H324.329ZM318.698 272.515C315.054 278.994 309.839 284.015 303.001 287.596L304.857 291.14C312.356 287.212 318.148 281.652 322.184 274.477L318.698 272.515ZM302.992 287.601C296.244 291.178 288.341 293 279.225 293V297C288.882 297 297.449 295.067 304.866 291.135L302.992 287.601ZM279.225 293H245.561V297H279.225V293ZM247.561 295V205.144H243.561V295H247.561ZM245.561 207.144H279.225V203.144H245.561V207.144ZM277.817 278.056C286.464 278.056 293.467 275.685 298.546 270.699L295.744 267.845C291.607 271.905 285.725 274.056 277.817 274.056V278.056ZM298.546 270.699C303.637 265.702 306.057 258.727 306.057 250.072H302.057C302.057 257.971 299.869 263.796 295.744 267.845L298.546 270.699ZM306.057 250.072C306.057 241.415 303.637 234.407 298.559 229.33L295.731 232.158C299.869 236.297 302.057 242.175 302.057 250.072H306.057ZM298.559 229.33C293.482 224.252 286.474 221.832 277.817 221.832V225.832C285.714 225.832 291.592 228.02 295.731 232.158L298.559 229.33ZM277.817 221.832H267.449V225.832H277.817V221.832ZM265.449 223.832V276.056H269.449V223.832H265.449ZM267.449 278.056H277.817V274.056H267.449V278.056ZM352.129 291.544L351.181 293.305L351.192 293.311L352.129 291.544ZM338.945 278.744L337.207 279.733L337.213 279.743L337.218 279.753L338.945 278.744ZM339.073 239.96L340.8 240.969L340.806 240.958L339.073 239.96ZM352.385 227.032L353.322 228.799L353.322 228.799L352.385 227.032ZM390.273 227.032L389.336 228.799L389.336 228.799L390.273 227.032ZM403.585 239.96L401.852 240.958L401.858 240.969L403.585 239.96ZM403.457 278.744L401.735 277.727L401.73 277.735L403.457 278.744ZM390.017 291.544L389.091 289.771L389.08 289.777L390.017 291.544ZM381.697 272.472L380.263 271.078L380.253 271.088L380.243 271.099L381.697 272.472ZM381.825 246.104L380.351 247.455L380.361 247.466L380.371 247.477L381.825 246.104ZM360.705 246.104L362.16 247.476L362.17 247.466L362.179 247.455L360.705 246.104ZM360.577 272.472L359.082 273.801L359.092 273.812L359.103 273.823L360.577 272.472ZM371.073 294.024C364.37 294.024 358.382 292.596 353.066 289.777L351.192 293.311C357.14 296.465 363.782 298.024 371.073 298.024V294.024ZM353.077 289.783C347.861 286.974 343.733 282.971 340.672 277.735L337.218 279.753C340.643 285.611 345.304 290.14 351.181 293.305L353.077 289.783ZM340.683 277.755C337.724 272.555 336.209 266.422 336.209 259.288H332.209C332.209 267.002 333.852 273.839 337.207 279.733L340.683 277.755ZM336.209 259.288C336.209 252.253 337.76 246.168 340.8 240.969L337.346 238.951C333.9 244.845 332.209 251.646 332.209 259.288H336.209ZM340.806 240.958C343.865 235.645 348.029 231.606 353.322 228.799L351.448 225.265C345.477 228.432 340.766 233.011 337.34 238.962L340.806 240.958ZM353.322 228.799C358.638 225.98 364.626 224.552 371.329 224.552V220.552C364.038 220.552 357.396 222.111 351.448 225.265L353.322 228.799ZM371.329 224.552C378.032 224.552 384.02 225.98 389.336 228.799L391.21 225.265C385.262 222.111 378.62 220.552 371.329 220.552V224.552ZM389.336 228.799C394.629 231.606 398.793 235.645 401.852 240.958L405.318 238.962C401.892 233.011 397.181 228.432 391.21 225.265L389.336 228.799ZM401.858 240.969C404.898 246.168 406.449 252.253 406.449 259.288H410.449C410.449 251.646 408.758 244.845 405.312 238.951L401.858 240.969ZM406.449 259.288C406.449 266.313 404.86 272.439 401.735 277.727L405.179 279.761C408.71 273.785 410.449 266.94 410.449 259.288H406.449ZM401.73 277.735C398.678 282.955 394.476 286.958 389.091 289.771L390.943 293.317C396.992 290.157 401.75 285.626 405.184 279.753L401.73 277.735ZM389.08 289.777C383.764 292.596 377.776 294.024 371.073 294.024V298.024C378.364 298.024 385.006 296.465 390.954 293.311L389.08 289.777ZM371.073 279.08C375.811 279.08 379.876 277.312 383.151 273.845L380.243 271.099C377.715 273.776 374.698 275.08 371.073 275.08V279.08ZM383.131 273.866C386.589 270.31 388.177 265.347 388.177 259.288H384.177C384.177 264.664 382.779 268.49 380.263 271.078L383.131 273.866ZM388.177 259.288C388.177 253.244 386.64 248.289 383.279 244.731L380.371 247.477C382.813 250.063 384.177 253.898 384.177 259.288H388.177ZM383.299 244.753C380.103 241.266 376.069 239.496 371.329 239.496V243.496C374.952 243.496 377.915 244.798 380.351 247.455L383.299 244.753ZM371.329 239.496C366.517 239.496 362.436 241.256 359.231 244.753L362.179 247.455C364.606 244.808 367.608 243.496 371.329 243.496V239.496ZM359.25 244.732C355.962 248.219 354.481 253.187 354.481 259.288H358.481C358.481 253.784 359.816 249.962 362.16 247.476L359.25 244.732ZM354.481 259.288C354.481 265.304 355.918 270.241 359.082 273.801L362.072 271.143C359.775 268.559 358.481 264.707 358.481 259.288H354.481ZM359.103 273.823C362.299 277.31 366.333 279.08 371.073 279.08V275.08C367.45 275.08 364.487 273.778 362.051 271.121L359.103 273.823Z" fill="#B4B9CB" mask="url(#path-1-outside-1_1_2)"/>
</svg>
